
      <svg xmlns="http://www.w3.org/2000/svg" viewBox="0 0 1200 600">
        <defs>
          <style>
            text { font-family: Arial, sans-serif; }
            .title { font-size: 24px; font-weight: bold; }
            .label { font-size: 14px; }
            .value { font-size: 12px; fill: #666666; }
            .axis { font-size: 12px; }
            .legend { font-size: 14px; }
          </style>
        </defs>

        <rect width="1200" height="600" fill="white"/>

        
            <line 
              x1="70" 
              y1="50" 
              x2="1050" 
              y2="50" 
              stroke="#e5e7eb" 
              stroke-dasharray="4"
            />
            <text 
              x="60" 
              y="50" 
              text-anchor="end" 
              class="axis" 
              dominant-baseline="middle"
            >41</text>
          
            <line 
              x1="70" 
              y1="95" 
              x2="1050" 
              y2="95" 
              stroke="#e5e7eb" 
              stroke-dasharray="4"
            />
            <text 
              x="60" 
              y="95" 
              text-anchor="end" 
              class="axis" 
              dominant-baseline="middle"
            >37</text>
          
            <line 
              x1="70" 
              y1="140" 
              x2="1050" 
              y2="140" 
              stroke="#e5e7eb" 
              stroke-dasharray="4"
            />
            <text 
              x="60" 
              y="140" 
              text-anchor="end" 
              class="axis" 
              dominant-baseline="middle"
            >33</text>
          
            <line 
              x1="70" 
              y1="185" 
              x2="1050" 
              y2="185" 
              stroke="#e5e7eb" 
              stroke-dasharray="4"
            />
            <text 
              x="60" 
              y="185" 
              text-anchor="end" 
              class="axis" 
              dominant-baseline="middle"
            >29</text>
          
            <line 
              x1="70" 
              y1="230" 
              x2="1050" 
              y2="230" 
              stroke="#e5e7eb" 
              stroke-dasharray="4"
            />
            <text 
              x="60" 
              y="230" 
              text-anchor="end" 
              class="axis" 
              dominant-baseline="middle"
            >25</text>
          
            <line 
              x1="70" 
              y1="275" 
              x2="1050" 
              y2="275" 
              stroke="#e5e7eb" 
              stroke-dasharray="4"
            />
            <text 
              x="60" 
              y="275" 
              text-anchor="end" 
              class="axis" 
              dominant-baseline="middle"
            >21</text>
          
            <line 
              x1="70" 
              y1="320" 
              x2="1050" 
              y2="320" 
              stroke="#e5e7eb" 
              stroke-dasharray="4"
            />
            <text 
              x="60" 
              y="320" 
              text-anchor="end" 
              class="axis" 
              dominant-baseline="middle"
            >16</text>
          
            <line 
              x1="70" 
              y1="365" 
              x2="1050" 
              y2="365" 
              stroke="#e5e7eb" 
              stroke-dasharray="4"
            />
            <text 
              x="60" 
              y="365" 
              text-anchor="end" 
              class="axis" 
              dominant-baseline="middle"
            >12</text>
          
            <line 
              x1="70" 
              y1="410" 
              x2="1050" 
              y2="410" 
              stroke="#e5e7eb" 
              stroke-dasharray="4"
            />
            <text 
              x="60" 
              y="410" 
              text-anchor="end" 
              class="axis" 
              dominant-baseline="middle"
            >8</text>
          
            <line 
              x1="70" 
              y1="455" 
              x2="1050" 
              y2="455" 
              stroke="#e5e7eb" 
              stroke-dasharray="4"
            />
            <text 
              x="60" 
              y="455" 
              text-anchor="end" 
              class="axis" 
              dominant-baseline="middle"
            >4</text>
          
            <line 
              x1="70" 
              y1="500" 
              x2="1050" 
              y2="500" 
              stroke="#e5e7eb" 
              stroke-dasharray="4"
            />
            <text 
              x="60" 
              y="500" 
              text-anchor="end" 
              class="axis" 
              dominant-baseline="middle"
            >0</text>
          

        <path 
          d="M70,49.99999999999994 L131.25,49.99999999999994 L192.5,49.99999999999994 L253.75,49.99999999999994 L315,49.99999999999994 L376.25,49.99999999999994 L437.5,49.99999999999994 L498.75,49.99999999999994 L560,49.99999999999994 L621.25,49.99999999999994 L682.5,49.99999999999994 L743.75,49.99999999999994 L805,49.99999999999994 L866.25,49.99999999999994 L927.5,49.99999999999994 L988.75,49.99999999999994 L1050,49.99999999999994 L1050,500 L988.75,500 L927.5,500 L866.25,500 L805,500 L743.75,500 L682.5,500 L621.25,500 L560,500 L498.75,500 L437.5,500 L376.25,500 L315,500 L253.75,500 L192.5,500 L131.25,500 L70,500 Z" 
          fill="#ef4444" 
          opacity="0.8"
        />
        <path 
          d="M70,159.7560975609756 L131.25,159.7560975609756 L192.5,159.7560975609756 L253.75,159.7560975609756 L315,159.7560975609756 L376.25,159.7560975609756 L437.5,159.7560975609756 L498.75,159.7560975609756 L560,159.7560975609756 L621.25,159.7560975609756 L682.5,159.7560975609756 L743.75,159.7560975609756 L805,159.7560975609756 L866.25,159.7560975609756 L927.5,159.7560975609756 L988.75,159.7560975609756 L1050,159.7560975609756 L1050,500 L988.75,500 L927.5,500 L866.25,500 L805,500 L743.75,500 L682.5,500 L621.25,500 L560,500 L498.75,500 L437.5,500 L376.25,500 L315,500 L253.75,500 L192.5,500 L131.25,500 L70,500 Z" 
          fill="#f59e0b" 
          opacity="0.8"
        />
        <path 
          d="M70,456.0975609756098 L131.25,456.0975609756098 L192.5,456.0975609756098 L253.75,456.0975609756098 L315,456.0975609756098 L376.25,456.0975609756098 L437.5,456.0975609756098 L498.75,456.0975609756098 L560,456.0975609756098 L621.25,456.0975609756098 L682.5,456.0975609756098 L743.75,456.0975609756098 L805,456.0975609756098 L866.25,456.0975609756098 L927.5,456.0975609756098 L988.75,456.0975609756098 L1050,456.0975609756098 L1050,500 L988.75,500 L927.5,500 L866.25,500 L805,500 L743.75,500 L682.5,500 L621.25,500 L560,500 L498.75,500 L437.5,500 L376.25,500 L315,500 L253.75,500 L192.5,500 L131.25,500 L70,500 Z" 
          fill="#22c55e" 
          opacity="0.8"
        />

        <line 
          x1="70" 
          y1="50" 
          x2="70" 
          y2="500" 
          stroke="black" 
          stroke-width="2"
        />
        <line 
          x1="70" 
          y1="500" 
          x2="1050" 
          y2="500" 
          stroke="black" 
          stroke-width="2"
        />

        
              <text 
                transform="rotate(-45 70 520)"
                x="70"
                y="520"
                text-anchor="end"
                class="axis"
              >qua. 01/01</text>
            
              <text 
                transform="rotate(-45 192.5 520)"
                x="192.5"
                y="520"
                text-anchor="end"
                class="axis"
              >sex. 03/01</text>
            
              <text 
                transform="rotate(-45 315 520)"
                x="315"
                y="520"
                text-anchor="end"
                class="axis"
              >dom. 05/01</text>
            
              <text 
                transform="rotate(-45 437.5 520)"
                x="437.5"
                y="520"
                text-anchor="end"
                class="axis"
              >ter. 07/01</text>
            
              <text 
                transform="rotate(-45 560 520)"
                x="560"
                y="520"
                text-anchor="end"
                class="axis"
              >qui. 09/01</text>
            
              <text 
                transform="rotate(-45 682.5 520)"
                x="682.5"
                y="520"
                text-anchor="end"
                class="axis"
              >sáb. 11/01</text>
            
              <text 
                transform="rotate(-45 805 520)"
                x="805"
                y="520"
                text-anchor="end"
                class="axis"
              >seg. 13/01</text>
            
              <text 
                transform="rotate(-45 927.5 520)"
                x="927.5"
                y="520"
                text-anchor="end"
                class="axis"
              >qua. 15/01</text>
            
              <text 
                transform="rotate(-45 1050 520)"
                x="1050"
                y="520"
                text-anchor="end"
                class="axis"
              >sex. 17/01</text>
            

        <text 
          transform="rotate(-90 30 300)" 
          x="30" 
          y="300" 
          text-anchor="middle" 
          class="label"
        >Número de Tarefas</text>

        <text 
          x="600" 
          y="580" 
          text-anchor="middle" 
          class="label"
        >Período do Projeto</text>

        <text 
          x="600" 
          y="30" 
          text-anchor="middle" 
          class="title"
        >Cumulative Flow Diagram - Projeto Completo</text>

        <g transform="translate(1070, 50)">
          <rect width="15" height="15" fill="#ef4444" rx="2"/>
          <text x="25" y="12" class="legend">TODO</text>
          
          <rect y="25" width="15" height="15" fill="#f59e0b" rx="2"/>
          <text x="25" y="37" class="legend">DOING</text>
          
          <rect y="50" width="15" height="15" fill="#22c55e" rx="2"/>
          <text x="25" y="62" class="legend">DONE</text>
          
          <text x="0" y="90" class="value">
            Período: 01/01/2025 - 
            17/01/2025
          </text>
          <text x="0" y="110" class="value">
            Total de Tasks: 41
          </text>
          <text x="0" y="130" class="value">
            Total de Sprints: 1
          </text>
        </g>
      </svg>
    