
      <svg xmlns="http://www.w3.org/2000/svg" viewBox="0 0 1200 600">
        <defs>
          <style>
            text { font-family: Arial, sans-serif; }
            .title { font-size: 24px; font-weight: bold; }
            .label { font-size: 14px; }
            .value { font-size: 12px; fill: #666666; }
            .axis { font-size: 12px; }
            .legend { font-size: 14px; }
          </style>
        </defs>

        <rect width="1200" height="600" fill="white"/>

        
            <line 
              x1="70" 
              y1="50" 
              x2="1050" 
              y2="50" 
              stroke="#e5e7eb" 
              stroke-dasharray="4"
            />
            <text 
              x="60" 
              y="50" 
              text-anchor="end" 
              class="axis" 
              dominant-baseline="middle"
            >6</text>
          
            <line 
              x1="70" 
              y1="95" 
              x2="1050" 
              y2="95" 
              stroke="#e5e7eb" 
              stroke-dasharray="4"
            />
            <text 
              x="60" 
              y="95" 
              text-anchor="end" 
              class="axis" 
              dominant-baseline="middle"
            >5</text>
          
            <line 
              x1="70" 
              y1="140" 
              x2="1050" 
              y2="140" 
              stroke="#e5e7eb" 
              stroke-dasharray="4"
            />
            <text 
              x="60" 
              y="140" 
              text-anchor="end" 
              class="axis" 
              dominant-baseline="middle"
            >5</text>
          
            <line 
              x1="70" 
              y1="185" 
              x2="1050" 
              y2="185" 
              stroke="#e5e7eb" 
              stroke-dasharray="4"
            />
            <text 
              x="60" 
              y="185" 
              text-anchor="end" 
              class="axis" 
              dominant-baseline="middle"
            >4</text>
          
            <line 
              x1="70" 
              y1="230" 
              x2="1050" 
              y2="230" 
              stroke="#e5e7eb" 
              stroke-dasharray="4"
            />
            <text 
              x="60" 
              y="230" 
              text-anchor="end" 
              class="axis" 
              dominant-baseline="middle"
            >4</text>
          
            <line 
              x1="70" 
              y1="275" 
              x2="1050" 
              y2="275" 
              stroke="#e5e7eb" 
              stroke-dasharray="4"
            />
            <text 
              x="60" 
              y="275" 
              text-anchor="end" 
              class="axis" 
              dominant-baseline="middle"
            >3</text>
          
            <line 
              x1="70" 
              y1="320" 
              x2="1050" 
              y2="320" 
              stroke="#e5e7eb" 
              stroke-dasharray="4"
            />
            <text 
              x="60" 
              y="320" 
              text-anchor="end" 
              class="axis" 
              dominant-baseline="middle"
            >2</text>
          
            <line 
              x1="70" 
              y1="365" 
              x2="1050" 
              y2="365" 
              stroke="#e5e7eb" 
              stroke-dasharray="4"
            />
            <text 
              x="60" 
              y="365" 
              text-anchor="end" 
              class="axis" 
              dominant-baseline="middle"
            >2</text>
          
            <line 
              x1="70" 
              y1="410" 
              x2="1050" 
              y2="410" 
              stroke="#e5e7eb" 
              stroke-dasharray="4"
            />
            <text 
              x="60" 
              y="410" 
              text-anchor="end" 
              class="axis" 
              dominant-baseline="middle"
            >1</text>
          
            <line 
              x1="70" 
              y1="455" 
              x2="1050" 
              y2="455" 
              stroke="#e5e7eb" 
              stroke-dasharray="4"
            />
            <text 
              x="60" 
              y="455" 
              text-anchor="end" 
              class="axis" 
              dominant-baseline="middle"
            >1</text>
          
            <line 
              x1="70" 
              y1="500" 
              x2="1050" 
              y2="500" 
              stroke="#e5e7eb" 
              stroke-dasharray="4"
            />
            <text 
              x="60" 
              y="500" 
              text-anchor="end" 
              class="axis" 
              dominant-baseline="middle"
            >0</text>
          

        <path 
          d="M70,50 L159.0909090909091,50 L248.1818181818182,50 L337.27272727272725,50 L426.3636363636364,50 L515.4545454545455,50 L604.5454545454545,50 L693.6363636363636,50 L782.7272727272727,50 L871.8181818181819,50 L960.909090909091,50 L1050,50 L1050,500 L960.909090909091,500 L871.8181818181819,500 L782.7272727272727,500 L693.6363636363636,500 L604.5454545454545,500 L515.4545454545455,500 L426.3636363636364,500 L337.27272727272725,500 L248.1818181818182,500 L159.0909090909091,500 L70,500 Z" 
          fill="#ef4444" 
          opacity="0.8"
        />
        <path 
          d="M70,200 L159.0909090909091,200 L248.1818181818182,200 L337.27272727272725,200 L426.3636363636364,200 L515.4545454545455,200 L604.5454545454545,200 L693.6363636363636,200 L782.7272727272727,200 L871.8181818181819,200 L960.909090909091,200 L1050,200 L1050,500 L960.909090909091,500 L871.8181818181819,500 L782.7272727272727,500 L693.6363636363636,500 L604.5454545454545,500 L515.4545454545455,500 L426.3636363636364,500 L337.27272727272725,500 L248.1818181818182,500 L159.0909090909091,500 L70,500 Z" 
          fill="#f59e0b" 
          opacity="0.8"
        />
        <path 
          d="M70,350 L159.0909090909091,350 L248.1818181818182,350 L337.27272727272725,350 L426.3636363636364,350 L515.4545454545455,350 L604.5454545454545,350 L693.6363636363636,350 L782.7272727272727,350 L871.8181818181819,350 L960.909090909091,350 L1050,350 L1050,500 L960.909090909091,500 L871.8181818181819,500 L782.7272727272727,500 L693.6363636363636,500 L604.5454545454545,500 L515.4545454545455,500 L426.3636363636364,500 L337.27272727272725,500 L248.1818181818182,500 L159.0909090909091,500 L70,500 Z" 
          fill="#22c55e" 
          opacity="0.8"
        />

        <line 
          x1="70" 
          y1="50" 
          x2="70" 
          y2="500" 
          stroke="black" 
          stroke-width="2"
        />
        <line 
          x1="70" 
          y1="500" 
          x2="1050" 
          y2="500" 
          stroke="black" 
          stroke-width="2"
        />

        
              <text 
                transform="rotate(-45 70 520)"
                x="70"
                y="520"
                text-anchor="end"
                class="axis"
              >qua. 20/11</text>
            
              <text 
                transform="rotate(-45 248.1818181818182 520)"
                x="248.1818181818182"
                y="520"
                text-anchor="end"
                class="axis"
              >sex. 22/11</text>
            
              <text 
                transform="rotate(-45 426.3636363636364 520)"
                x="426.3636363636364"
                y="520"
                text-anchor="end"
                class="axis"
              >dom. 24/11</text>
            
              <text 
                transform="rotate(-45 604.5454545454545 520)"
                x="604.5454545454545"
                y="520"
                text-anchor="end"
                class="axis"
              >ter. 26/11</text>
            
              <text 
                transform="rotate(-45 782.7272727272727 520)"
                x="782.7272727272727"
                y="520"
                text-anchor="end"
                class="axis"
              >qui. 28/11</text>
            
              <text 
                transform="rotate(-45 960.909090909091 520)"
                x="960.909090909091"
                y="520"
                text-anchor="end"
                class="axis"
              >sáb. 30/11</text>
            

        <text 
          transform="rotate(-90 30 300)" 
          x="30" 
          y="300" 
          text-anchor="middle" 
          class="label"
        >Número de Tarefas</text>

        <text 
          x="600" 
          y="580" 
          text-anchor="middle" 
          class="label"
        >Período do Projeto</text>

        <text 
          x="600" 
          y="30" 
          text-anchor="middle" 
          class="title"
        >Cumulative Flow Diagram - Projeto Completo</text>

        <g transform="translate(1070, 50)">
          <rect width="15" height="15" fill="#ef4444" rx="2"/>
          <text x="25" y="12" class="legend">TODO</text>
          
          <rect y="25" width="15" height="15" fill="#f59e0b" rx="2"/>
          <text x="25" y="37" class="legend">DOING</text>
          
          <rect y="50" width="15" height="15" fill="#22c55e" rx="2"/>
          <text x="25" y="62" class="legend">DONE</text>
          
          <text x="0" y="90" class="value">
            Período: 20/11/2024 - 
            31/11/2024
          </text>
          <text x="0" y="110" class="value">
            Total de Tasks: 6
          </text>
          <text x="0" y="130" class="value">
            Total de Sprints: 2
          </text>
        </g>
      </svg>
    