
      <svg xmlns="http://www.w3.org/2000/svg" viewBox="0 0 1200 600">
        <defs>
          <style>
            text { font-family: Arial, sans-serif; }
            .title { font-size: 24px; font-weight: bold; }
            .label { font-size: 14px; }
            .value { font-size: 12px; fill: #666666; }
            .axis { font-size: 12px; }
            .legend { font-size: 14px; }
          </style>
        </defs>

        <rect width="1200" height="600" fill="white"/>

        
            <line 
              x1="70" 
              y1="50" 
              x2="1050" 
              y2="50" 
              stroke="#e5e7eb" 
              stroke-dasharray="4"
            />
            <text 
              x="60" 
              y="50" 
              text-anchor="end" 
              class="axis" 
              dominant-baseline="middle"
            >130</text>
          
            <line 
              x1="70" 
              y1="95" 
              x2="1050" 
              y2="95" 
              stroke="#e5e7eb" 
              stroke-dasharray="4"
            />
            <text 
              x="60" 
              y="95" 
              text-anchor="end" 
              class="axis" 
              dominant-baseline="middle"
            >117</text>
          
            <line 
              x1="70" 
              y1="140" 
              x2="1050" 
              y2="140" 
              stroke="#e5e7eb" 
              stroke-dasharray="4"
            />
            <text 
              x="60" 
              y="140" 
              text-anchor="end" 
              class="axis" 
              dominant-baseline="middle"
            >104</text>
          
            <line 
              x1="70" 
              y1="185" 
              x2="1050" 
              y2="185" 
              stroke="#e5e7eb" 
              stroke-dasharray="4"
            />
            <text 
              x="60" 
              y="185" 
              text-anchor="end" 
              class="axis" 
              dominant-baseline="middle"
            >91</text>
          
            <line 
              x1="70" 
              y1="230" 
              x2="1050" 
              y2="230" 
              stroke="#e5e7eb" 
              stroke-dasharray="4"
            />
            <text 
              x="60" 
              y="230" 
              text-anchor="end" 
              class="axis" 
              dominant-baseline="middle"
            >78</text>
          
            <line 
              x1="70" 
              y1="275" 
              x2="1050" 
              y2="275" 
              stroke="#e5e7eb" 
              stroke-dasharray="4"
            />
            <text 
              x="60" 
              y="275" 
              text-anchor="end" 
              class="axis" 
              dominant-baseline="middle"
            >65</text>
          
            <line 
              x1="70" 
              y1="320" 
              x2="1050" 
              y2="320" 
              stroke="#e5e7eb" 
              stroke-dasharray="4"
            />
            <text 
              x="60" 
              y="320" 
              text-anchor="end" 
              class="axis" 
              dominant-baseline="middle"
            >52</text>
          
            <line 
              x1="70" 
              y1="365" 
              x2="1050" 
              y2="365" 
              stroke="#e5e7eb" 
              stroke-dasharray="4"
            />
            <text 
              x="60" 
              y="365" 
              text-anchor="end" 
              class="axis" 
              dominant-baseline="middle"
            >39</text>
          
            <line 
              x1="70" 
              y1="410" 
              x2="1050" 
              y2="410" 
              stroke="#e5e7eb" 
              stroke-dasharray="4"
            />
            <text 
              x="60" 
              y="410" 
              text-anchor="end" 
              class="axis" 
              dominant-baseline="middle"
            >26</text>
          
            <line 
              x1="70" 
              y1="455" 
              x2="1050" 
              y2="455" 
              stroke="#e5e7eb" 
              stroke-dasharray="4"
            />
            <text 
              x="60" 
              y="455" 
              text-anchor="end" 
              class="axis" 
              dominant-baseline="middle"
            >13</text>
          
            <line 
              x1="70" 
              y1="500" 
              x2="1050" 
              y2="500" 
              stroke="#e5e7eb" 
              stroke-dasharray="4"
            />
            <text 
              x="60" 
              y="500" 
              text-anchor="end" 
              class="axis" 
              dominant-baseline="middle"
            >0</text>
          

        <path 
          d="M70,493.0769230769231 L78.09917355371901,489.61538461538464 L86.19834710743802,489.61538461538464 L94.29752066115702,444.61538461538464 L102.39669421487604,444.61538461538464 L110.49586776859505,444.61538461538464 L118.59504132231405,444.61538461538464 L126.69421487603306,441.15384615384613 L134.79338842975207,441.15384615384613 L142.89256198347107,441.15384615384613 L150.9917355371901,427.3076923076923 L159.0909090909091,427.3076923076923 L167.1900826446281,427.3076923076923 L175.28925619834712,427.3076923076923 L183.38842975206612,427.3076923076923 L191.48760330578511,427.3076923076923 L199.58677685950414,427.3076923076923 L207.68595041322314,423.8461538461538 L215.78512396694217,423.8461538461538 L223.88429752066116,423.8461538461538 L231.9834710743802,423.8461538461538 L240.0826446280992,423.8461538461538 L248.1818181818182,423.8461538461538 L256.2809917355372,423.8461538461538 L264.3801652892562,406.53846153846155 L272.4793388429752,406.53846153846155 L280.57851239669424,406.53846153846155 L288.6776859504132,406.53846153846155 L296.77685950413223,406.53846153846155 L304.87603305785126,406.53846153846155 L312.97520661157023,406.53846153846155 L321.0743801652893,406.53846153846155 L329.1735537190083,406.53846153846155 L337.2727272727273,406.53846153846155 L345.3719008264463,406.53846153846155 L353.4710743801653,406.53846153846155 L361.57024793388433,406.53846153846155 L369.6694214876033,406.53846153846155 L377.7685950413223,403.0769230769231 L385.86776859504135,403.0769230769231 L393.9669421487604,403.0769230769231 L402.06611570247935,403.0769230769231 L410.1652892561984,403.0769230769231 L418.2644628099174,403.0769230769231 L426.3636363636364,403.0769230769231 L434.4628099173554,403.0769230769231 L442.5619834710744,403.0769230769231 L450.6611570247934,403.0769230769231 L458.7603305785124,403.0769230769231 L466.85950413223145,403.0769230769231 L474.9586776859504,403.0769230769231 L483.05785123966945,403.0769230769231 L491.1570247933885,403.0769230769231 L499.25619834710744,365 L507.35537190082647,365 L515.4545454545455,365 L523.5537190082645,365 L531.6528925619834,365 L539.7520661157025,361.53846153846155 L547.8512396694216,361.53846153846155 L555.9504132231405,361.53846153846155 L564.0495867768595,361.53846153846155 L572.1487603305786,361.53846153846155 L580.2479338842975,361.53846153846155 L588.3471074380166,361.53846153846155 L596.4462809917355,361.53846153846155 L604.5454545454546,361.53846153846155 L612.6446280991736,361.53846153846155 L620.7438016528926,361.53846153846155 L628.8429752066116,285.38461538461536 L636.9421487603306,261.15384615384613 L645.0413223140496,254.23076923076923 L653.1404958677687,247.3076923076923 L661.2396694214876,243.8461538461538 L669.3388429752066,243.8461538461538 L677.4380165289257,243.8461538461538 L685.5371900826447,243.8461538461538 L693.6363636363636,212.69230769230768 L701.7355371900827,212.69230769230768 L709.8347107438017,212.69230769230768 L717.9338842975208,212.69230769230768 L726.0330578512397,212.69230769230768 L734.1322314049587,212.69230769230768 L742.2314049586778,212.69230769230768 L750.3305785123968,185 L758.4297520661157,185 L766.5289256198348,185 L774.6280991735538,185 L782.7272727272727,185 L790.8264462809918,185 L798.9256198347108,185 L807.0247933884298,185 L815.1239669421489,185 L823.2231404958678,185 L831.3223140495868,185 L839.4214876033059,185 L847.5206611570248,185 L855.6198347107438,185 L863.7190082644629,185 L871.8181818181819,185 L879.9173553719008,185 L888.0165289256199,185 L896.1157024793389,185 L904.2148760330579,185 L912.314049586777,185 L920.4132231404959,185 L928.5123966942149,181.53846153846155 L936.611570247934,181.53846153846155 L944.7107438016529,181.53846153846155 L952.8099173553719,181.53846153846155 L960.909090909091,181.53846153846155 L969.00826446281,181.53846153846155 L977.1074380165289,157.30769230769232 L985.206611570248,157.30769230769232 L993.305785123967,157.30769230769232 L1001.4049586776861,157.30769230769232 L1009.504132231405,157.30769230769232 L1017.603305785124,157.30769230769232 L1025.7024793388432,157.30769230769232 L1033.801652892562,157.30769230769232 L1041.900826446281,157.30769230769232 L1050,157.30769230769232 L1050,500 L1041.900826446281,500 L1033.801652892562,500 L1025.7024793388432,500 L1017.603305785124,500 L1009.504132231405,500 L1001.4049586776861,500 L993.305785123967,500 L985.206611570248,500 L977.1074380165289,500 L969.00826446281,500 L960.909090909091,500 L952.8099173553719,500 L944.7107438016529,500 L936.611570247934,500 L928.5123966942149,500 L920.4132231404959,500 L912.314049586777,500 L904.2148760330579,500 L896.1157024793389,500 L888.0165289256199,500 L879.9173553719008,500 L871.8181818181819,500 L863.7190082644629,500 L855.6198347107438,500 L847.5206611570248,500 L839.4214876033059,500 L831.3223140495868,500 L823.2231404958678,500 L815.1239669421489,500 L807.0247933884298,500 L798.9256198347108,500 L790.8264462809918,500 L782.7272727272727,500 L774.6280991735538,500 L766.5289256198348,500 L758.4297520661157,500 L750.3305785123968,500 L742.2314049586778,500 L734.1322314049587,500 L726.0330578512397,500 L717.9338842975208,500 L709.8347107438017,500 L701.7355371900827,500 L693.6363636363636,500 L685.5371900826447,500 L677.4380165289257,500 L669.3388429752066,500 L661.2396694214876,500 L653.1404958677687,500 L645.0413223140496,500 L636.9421487603306,500 L628.8429752066116,500 L620.7438016528926,500 L612.6446280991736,500 L604.5454545454546,500 L596.4462809917355,500 L588.3471074380166,500 L580.2479338842975,500 L572.1487603305786,500 L564.0495867768595,500 L555.9504132231405,500 L547.8512396694216,500 L539.7520661157025,500 L531.6528925619834,500 L523.5537190082645,500 L515.4545454545455,500 L507.35537190082647,500 L499.25619834710744,500 L491.1570247933885,500 L483.05785123966945,500 L474.9586776859504,500 L466.85950413223145,500 L458.7603305785124,500 L450.6611570247934,500 L442.5619834710744,500 L434.4628099173554,500 L426.3636363636364,500 L418.2644628099174,500 L410.1652892561984,500 L402.06611570247935,500 L393.9669421487604,500 L385.86776859504135,500 L377.7685950413223,500 L369.6694214876033,500 L361.57024793388433,500 L353.4710743801653,500 L345.3719008264463,500 L337.2727272727273,500 L329.1735537190083,500 L321.0743801652893,500 L312.97520661157023,500 L304.87603305785126,500 L296.77685950413223,500 L288.6776859504132,500 L280.57851239669424,500 L272.4793388429752,500 L264.3801652892562,500 L256.2809917355372,500 L248.1818181818182,500 L240.0826446280992,500 L231.9834710743802,500 L223.88429752066116,500 L215.78512396694217,500 L207.68595041322314,500 L199.58677685950414,500 L191.48760330578511,500 L183.38842975206612,500 L175.28925619834712,500 L167.1900826446281,500 L159.0909090909091,500 L150.9917355371901,500 L142.89256198347107,500 L134.79338842975207,500 L126.69421487603306,500 L118.59504132231405,500 L110.49586776859505,500 L102.39669421487604,500 L94.29752066115702,500 L86.19834710743802,500 L78.09917355371901,500 L70,500 Z" 
          fill="#ef4444" 
          opacity="0.8"
        />
        <path 
          d="M70,493.0769230769231 L78.09917355371901,489.61538461538464 L86.19834710743802,489.61538461538464 L94.29752066115702,444.61538461538464 L102.39669421487604,444.61538461538464 L110.49586776859505,444.61538461538464 L118.59504132231405,444.61538461538464 L126.69421487603306,441.15384615384613 L134.79338842975207,441.15384615384613 L142.89256198347107,441.15384615384613 L150.9917355371901,427.3076923076923 L159.0909090909091,427.3076923076923 L167.1900826446281,427.3076923076923 L175.28925619834712,427.3076923076923 L183.38842975206612,427.3076923076923 L191.48760330578511,427.3076923076923 L199.58677685950414,427.3076923076923 L207.68595041322314,423.8461538461538 L215.78512396694217,423.8461538461538 L223.88429752066116,423.8461538461538 L231.9834710743802,423.8461538461538 L240.0826446280992,423.8461538461538 L248.1818181818182,423.8461538461538 L256.2809917355372,423.8461538461538 L264.3801652892562,406.53846153846155 L272.4793388429752,406.53846153846155 L280.57851239669424,406.53846153846155 L288.6776859504132,406.53846153846155 L296.77685950413223,406.53846153846155 L304.87603305785126,406.53846153846155 L312.97520661157023,406.53846153846155 L321.0743801652893,406.53846153846155 L329.1735537190083,406.53846153846155 L337.2727272727273,406.53846153846155 L345.3719008264463,406.53846153846155 L353.4710743801653,406.53846153846155 L361.57024793388433,406.53846153846155 L369.6694214876033,406.53846153846155 L377.7685950413223,403.0769230769231 L385.86776859504135,403.0769230769231 L393.9669421487604,403.0769230769231 L402.06611570247935,403.0769230769231 L410.1652892561984,403.0769230769231 L418.2644628099174,403.0769230769231 L426.3636363636364,403.0769230769231 L434.4628099173554,403.0769230769231 L442.5619834710744,403.0769230769231 L450.6611570247934,403.0769230769231 L458.7603305785124,403.0769230769231 L466.85950413223145,403.0769230769231 L474.9586776859504,403.0769230769231 L483.05785123966945,403.0769230769231 L491.1570247933885,403.0769230769231 L499.25619834710744,365 L507.35537190082647,365 L515.4545454545455,365 L523.5537190082645,365 L531.6528925619834,365 L539.7520661157025,361.53846153846155 L547.8512396694216,361.53846153846155 L555.9504132231405,361.53846153846155 L564.0495867768595,361.53846153846155 L572.1487603305786,361.53846153846155 L580.2479338842975,361.53846153846155 L588.3471074380166,361.53846153846155 L596.4462809917355,361.53846153846155 L604.5454545454546,361.53846153846155 L612.6446280991736,361.53846153846155 L620.7438016528926,361.53846153846155 L628.8429752066116,285.38461538461536 L636.9421487603306,261.15384615384613 L645.0413223140496,254.23076923076923 L653.1404958677687,247.3076923076923 L661.2396694214876,243.8461538461538 L669.3388429752066,243.8461538461538 L677.4380165289257,243.8461538461538 L685.5371900826447,243.8461538461538 L693.6363636363636,212.69230769230768 L701.7355371900827,212.69230769230768 L709.8347107438017,212.69230769230768 L717.9338842975208,212.69230769230768 L726.0330578512397,212.69230769230768 L734.1322314049587,212.69230769230768 L742.2314049586778,212.69230769230768 L750.3305785123968,185 L758.4297520661157,185 L766.5289256198348,185 L774.6280991735538,185 L782.7272727272727,185 L790.8264462809918,185 L798.9256198347108,185 L807.0247933884298,185 L815.1239669421489,185 L823.2231404958678,185 L831.3223140495868,185 L839.4214876033059,185 L847.5206611570248,185 L855.6198347107438,185 L863.7190082644629,185 L871.8181818181819,185 L879.9173553719008,185 L888.0165289256199,185 L896.1157024793389,185 L904.2148760330579,185 L912.314049586777,185 L920.4132231404959,185 L928.5123966942149,181.53846153846155 L936.611570247934,181.53846153846155 L944.7107438016529,181.53846153846155 L952.8099173553719,181.53846153846155 L960.909090909091,181.53846153846155 L969.00826446281,181.53846153846155 L977.1074380165289,157.30769230769232 L985.206611570248,157.30769230769232 L993.305785123967,157.30769230769232 L1001.4049586776861,157.30769230769232 L1009.504132231405,157.30769230769232 L1017.603305785124,157.30769230769232 L1025.7024793388432,157.30769230769232 L1033.801652892562,157.30769230769232 L1041.900826446281,157.30769230769232 L1050,157.30769230769232 L1050,500 L1041.900826446281,500 L1033.801652892562,500 L1025.7024793388432,500 L1017.603305785124,500 L1009.504132231405,500 L1001.4049586776861,500 L993.305785123967,500 L985.206611570248,500 L977.1074380165289,500 L969.00826446281,500 L960.909090909091,500 L952.8099173553719,500 L944.7107438016529,500 L936.611570247934,500 L928.5123966942149,500 L920.4132231404959,500 L912.314049586777,500 L904.2148760330579,500 L896.1157024793389,500 L888.0165289256199,500 L879.9173553719008,500 L871.8181818181819,500 L863.7190082644629,500 L855.6198347107438,500 L847.5206611570248,500 L839.4214876033059,500 L831.3223140495868,500 L823.2231404958678,500 L815.1239669421489,500 L807.0247933884298,500 L798.9256198347108,500 L790.8264462809918,500 L782.7272727272727,500 L774.6280991735538,500 L766.5289256198348,500 L758.4297520661157,500 L750.3305785123968,500 L742.2314049586778,500 L734.1322314049587,500 L726.0330578512397,500 L717.9338842975208,500 L709.8347107438017,500 L701.7355371900827,500 L693.6363636363636,500 L685.5371900826447,500 L677.4380165289257,500 L669.3388429752066,500 L661.2396694214876,500 L653.1404958677687,500 L645.0413223140496,500 L636.9421487603306,500 L628.8429752066116,500 L620.7438016528926,500 L612.6446280991736,500 L604.5454545454546,500 L596.4462809917355,500 L588.3471074380166,500 L580.2479338842975,500 L572.1487603305786,500 L564.0495867768595,500 L555.9504132231405,500 L547.8512396694216,500 L539.7520661157025,500 L531.6528925619834,500 L523.5537190082645,500 L515.4545454545455,500 L507.35537190082647,500 L499.25619834710744,500 L491.1570247933885,500 L483.05785123966945,500 L474.9586776859504,500 L466.85950413223145,500 L458.7603305785124,500 L450.6611570247934,500 L442.5619834710744,500 L434.4628099173554,500 L426.3636363636364,500 L418.2644628099174,500 L410.1652892561984,500 L402.06611570247935,500 L393.9669421487604,500 L385.86776859504135,500 L377.7685950413223,500 L369.6694214876033,500 L361.57024793388433,500 L353.4710743801653,500 L345.3719008264463,500 L337.2727272727273,500 L329.1735537190083,500 L321.0743801652893,500 L312.97520661157023,500 L304.87603305785126,500 L296.77685950413223,500 L288.6776859504132,500 L280.57851239669424,500 L272.4793388429752,500 L264.3801652892562,500 L256.2809917355372,500 L248.1818181818182,500 L240.0826446280992,500 L231.9834710743802,500 L223.88429752066116,500 L215.78512396694217,500 L207.68595041322314,500 L199.58677685950414,500 L191.48760330578511,500 L183.38842975206612,500 L175.28925619834712,500 L167.1900826446281,500 L159.0909090909091,500 L150.9917355371901,500 L142.89256198347107,500 L134.79338842975207,500 L126.69421487603306,500 L118.59504132231405,500 L110.49586776859505,500 L102.39669421487604,500 L94.29752066115702,500 L86.19834710743802,500 L78.09917355371901,500 L70,500 Z" 
          fill="#f59e0b" 
          opacity="0.8"
        />
        <path 
          d="M70,493.0769230769231 L78.09917355371901,489.61538461538464 L86.19834710743802,489.61538461538464 L94.29752066115702,444.61538461538464 L102.39669421487604,444.61538461538464 L110.49586776859505,444.61538461538464 L118.59504132231405,444.61538461538464 L126.69421487603306,441.15384615384613 L134.79338842975207,441.15384615384613 L142.89256198347107,441.15384615384613 L150.9917355371901,427.3076923076923 L159.0909090909091,427.3076923076923 L167.1900826446281,427.3076923076923 L175.28925619834712,427.3076923076923 L183.38842975206612,427.3076923076923 L191.48760330578511,427.3076923076923 L199.58677685950414,427.3076923076923 L207.68595041322314,423.8461538461538 L215.78512396694217,423.8461538461538 L223.88429752066116,423.8461538461538 L231.9834710743802,423.8461538461538 L240.0826446280992,423.8461538461538 L248.1818181818182,423.8461538461538 L256.2809917355372,423.8461538461538 L264.3801652892562,406.53846153846155 L272.4793388429752,406.53846153846155 L280.57851239669424,406.53846153846155 L288.6776859504132,406.53846153846155 L296.77685950413223,406.53846153846155 L304.87603305785126,406.53846153846155 L312.97520661157023,406.53846153846155 L321.0743801652893,406.53846153846155 L329.1735537190083,406.53846153846155 L337.2727272727273,406.53846153846155 L345.3719008264463,406.53846153846155 L353.4710743801653,406.53846153846155 L361.57024793388433,406.53846153846155 L369.6694214876033,406.53846153846155 L377.7685950413223,403.0769230769231 L385.86776859504135,403.0769230769231 L393.9669421487604,403.0769230769231 L402.06611570247935,403.0769230769231 L410.1652892561984,403.0769230769231 L418.2644628099174,403.0769230769231 L426.3636363636364,403.0769230769231 L434.4628099173554,403.0769230769231 L442.5619834710744,403.0769230769231 L450.6611570247934,403.0769230769231 L458.7603305785124,403.0769230769231 L466.85950413223145,403.0769230769231 L474.9586776859504,403.0769230769231 L483.05785123966945,403.0769230769231 L491.1570247933885,403.0769230769231 L499.25619834710744,365 L507.35537190082647,365 L515.4545454545455,365 L523.5537190082645,365 L531.6528925619834,365 L539.7520661157025,361.53846153846155 L547.8512396694216,361.53846153846155 L555.9504132231405,361.53846153846155 L564.0495867768595,361.53846153846155 L572.1487603305786,361.53846153846155 L580.2479338842975,361.53846153846155 L588.3471074380166,361.53846153846155 L596.4462809917355,361.53846153846155 L604.5454545454546,361.53846153846155 L612.6446280991736,361.53846153846155 L620.7438016528926,361.53846153846155 L628.8429752066116,285.38461538461536 L636.9421487603306,261.15384615384613 L645.0413223140496,254.23076923076923 L653.1404958677687,247.3076923076923 L661.2396694214876,243.8461538461538 L669.3388429752066,243.8461538461538 L677.4380165289257,243.8461538461538 L685.5371900826447,243.8461538461538 L693.6363636363636,212.69230769230768 L701.7355371900827,212.69230769230768 L709.8347107438017,212.69230769230768 L717.9338842975208,212.69230769230768 L726.0330578512397,212.69230769230768 L734.1322314049587,212.69230769230768 L742.2314049586778,212.69230769230768 L750.3305785123968,185 L758.4297520661157,185 L766.5289256198348,185 L774.6280991735538,185 L782.7272727272727,185 L790.8264462809918,185 L798.9256198347108,185 L807.0247933884298,185 L815.1239669421489,185 L823.2231404958678,185 L831.3223140495868,185 L839.4214876033059,185 L847.5206611570248,185 L855.6198347107438,185 L863.7190082644629,185 L871.8181818181819,185 L879.9173553719008,185 L888.0165289256199,185 L896.1157024793389,185 L904.2148760330579,185 L912.314049586777,185 L920.4132231404959,185 L928.5123966942149,181.53846153846155 L936.611570247934,181.53846153846155 L944.7107438016529,181.53846153846155 L952.8099173553719,181.53846153846155 L960.909090909091,181.53846153846155 L969.00826446281,181.53846153846155 L977.1074380165289,157.30769230769232 L985.206611570248,157.30769230769232 L993.305785123967,157.30769230769232 L1001.4049586776861,157.30769230769232 L1009.504132231405,157.30769230769232 L1017.603305785124,157.30769230769232 L1025.7024793388432,157.30769230769232 L1033.801652892562,157.30769230769232 L1041.900826446281,157.30769230769232 L1050,157.30769230769232 L1050,500 L1041.900826446281,500 L1033.801652892562,500 L1025.7024793388432,500 L1017.603305785124,500 L1009.504132231405,500 L1001.4049586776861,500 L993.305785123967,500 L985.206611570248,500 L977.1074380165289,500 L969.00826446281,500 L960.909090909091,500 L952.8099173553719,500 L944.7107438016529,500 L936.611570247934,500 L928.5123966942149,500 L920.4132231404959,500 L912.314049586777,500 L904.2148760330579,500 L896.1157024793389,500 L888.0165289256199,500 L879.9173553719008,500 L871.8181818181819,500 L863.7190082644629,500 L855.6198347107438,500 L847.5206611570248,500 L839.4214876033059,500 L831.3223140495868,500 L823.2231404958678,500 L815.1239669421489,500 L807.0247933884298,500 L798.9256198347108,500 L790.8264462809918,500 L782.7272727272727,500 L774.6280991735538,500 L766.5289256198348,500 L758.4297520661157,500 L750.3305785123968,500 L742.2314049586778,500 L734.1322314049587,500 L726.0330578512397,500 L717.9338842975208,500 L709.8347107438017,500 L701.7355371900827,500 L693.6363636363636,500 L685.5371900826447,500 L677.4380165289257,500 L669.3388429752066,500 L661.2396694214876,500 L653.1404958677687,500 L645.0413223140496,500 L636.9421487603306,500 L628.8429752066116,500 L620.7438016528926,500 L612.6446280991736,500 L604.5454545454546,500 L596.4462809917355,500 L588.3471074380166,500 L580.2479338842975,500 L572.1487603305786,500 L564.0495867768595,500 L555.9504132231405,500 L547.8512396694216,500 L539.7520661157025,500 L531.6528925619834,500 L523.5537190082645,500 L515.4545454545455,500 L507.35537190082647,500 L499.25619834710744,500 L491.1570247933885,500 L483.05785123966945,500 L474.9586776859504,500 L466.85950413223145,500 L458.7603305785124,500 L450.6611570247934,500 L442.5619834710744,500 L434.4628099173554,500 L426.3636363636364,500 L418.2644628099174,500 L410.1652892561984,500 L402.06611570247935,500 L393.9669421487604,500 L385.86776859504135,500 L377.7685950413223,500 L369.6694214876033,500 L361.57024793388433,500 L353.4710743801653,500 L345.3719008264463,500 L337.2727272727273,500 L329.1735537190083,500 L321.0743801652893,500 L312.97520661157023,500 L304.87603305785126,500 L296.77685950413223,500 L288.6776859504132,500 L280.57851239669424,500 L272.4793388429752,500 L264.3801652892562,500 L256.2809917355372,500 L248.1818181818182,500 L240.0826446280992,500 L231.9834710743802,500 L223.88429752066116,500 L215.78512396694217,500 L207.68595041322314,500 L199.58677685950414,500 L191.48760330578511,500 L183.38842975206612,500 L175.28925619834712,500 L167.1900826446281,500 L159.0909090909091,500 L150.9917355371901,500 L142.89256198347107,500 L134.79338842975207,500 L126.69421487603306,500 L118.59504132231405,500 L110.49586776859505,500 L102.39669421487604,500 L94.29752066115702,500 L86.19834710743802,500 L78.09917355371901,500 L70,500 Z" 
          fill="#22c55e" 
          opacity="0.8"
        />

        <line 
          x1="70" 
          y1="50" 
          x2="70" 
          y2="500" 
          stroke="black" 
          stroke-width="2"
        />
        <line 
          x1="70" 
          y1="500" 
          x2="1050" 
          y2="500" 
          stroke="black" 
          stroke-width="2"
        />

        
              <text 
                transform="rotate(-45 70 520)"
                x="70"
                y="520"
                text-anchor="end"
                class="axis"
              >ter. 02/01</text>
            
              <text 
                transform="rotate(-45 126.69421487603306 520)"
                x="126.69421487603306"
                y="520"
                text-anchor="end"
                class="axis"
              >ter. 09/01</text>
            
              <text 
                transform="rotate(-45 183.38842975206612 520)"
                x="183.38842975206612"
                y="520"
                text-anchor="end"
                class="axis"
              >ter. 16/01</text>
            
              <text 
                transform="rotate(-45 240.0826446280992 520)"
                x="240.0826446280992"
                y="520"
                text-anchor="end"
                class="axis"
              >ter. 23/01</text>
            
              <text 
                transform="rotate(-45 296.77685950413223 520)"
                x="296.77685950413223"
                y="520"
                text-anchor="end"
                class="axis"
              >ter. 30/01</text>
            
              <text 
                transform="rotate(-45 353.4710743801653 520)"
                x="353.4710743801653"
                y="520"
                text-anchor="end"
                class="axis"
              >ter. 06/02</text>
            
              <text 
                transform="rotate(-45 410.1652892561984 520)"
                x="410.1652892561984"
                y="520"
                text-anchor="end"
                class="axis"
              >ter. 13/02</text>
            
              <text 
                transform="rotate(-45 466.85950413223145 520)"
                x="466.85950413223145"
                y="520"
                text-anchor="end"
                class="axis"
              >ter. 20/02</text>
            
              <text 
                transform="rotate(-45 523.5537190082645 520)"
                x="523.5537190082645"
                y="520"
                text-anchor="end"
                class="axis"
              >ter. 27/02</text>
            
              <text 
                transform="rotate(-45 580.2479338842975 520)"
                x="580.2479338842975"
                y="520"
                text-anchor="end"
                class="axis"
              >ter. 05/03</text>
            
              <text 
                transform="rotate(-45 636.9421487603306 520)"
                x="636.9421487603306"
                y="520"
                text-anchor="end"
                class="axis"
              >ter. 12/03</text>
            
              <text 
                transform="rotate(-45 693.6363636363636 520)"
                x="693.6363636363636"
                y="520"
                text-anchor="end"
                class="axis"
              >ter. 19/03</text>
            
              <text 
                transform="rotate(-45 750.3305785123968 520)"
                x="750.3305785123968"
                y="520"
                text-anchor="end"
                class="axis"
              >ter. 26/03</text>
            
              <text 
                transform="rotate(-45 807.0247933884298 520)"
                x="807.0247933884298"
                y="520"
                text-anchor="end"
                class="axis"
              >ter. 02/04</text>
            
              <text 
                transform="rotate(-45 863.7190082644629 520)"
                x="863.7190082644629"
                y="520"
                text-anchor="end"
                class="axis"
              >ter. 09/04</text>
            
              <text 
                transform="rotate(-45 920.4132231404959 520)"
                x="920.4132231404959"
                y="520"
                text-anchor="end"
                class="axis"
              >ter. 16/04</text>
            
              <text 
                transform="rotate(-45 977.1074380165289 520)"
                x="977.1074380165289"
                y="520"
                text-anchor="end"
                class="axis"
              >ter. 23/04</text>
            
              <text 
                transform="rotate(-45 1033.801652892562 520)"
                x="1033.801652892562"
                y="520"
                text-anchor="end"
                class="axis"
              >ter. 30/04</text>
            

        <text 
          transform="rotate(-90 30 300)" 
          x="30" 
          y="300" 
          text-anchor="middle" 
          class="label"
        >Número de Tarefas</text>

        <text 
          x="600" 
          y="580" 
          text-anchor="middle" 
          class="label"
        >Período do Projeto</text>

        <text 
          x="600" 
          y="30" 
          text-anchor="middle" 
          class="title"
        >Cumulative Flow Diagram - Projeto Completo</text>

        <g transform="translate(1070, 50)">
          <rect width="15" height="15" fill="#ef4444" rx="2"/>
          <text x="25" y="12" class="legend">A Fazer</text>
          
          <rect y="25" width="15" height="15" fill="#f59e0b" rx="2"/>
          <text x="25" y="37" class="legend">Em Progresso</text>
          
          <rect y="50" width="15" height="15" fill="#22c55e" rx="2"/>
          <text x="25" y="62" class="legend">Concluído</text>
          
          <text x="0" y="90" class="value">
            Período: 02/01/2024 - 
            03/05/2024
          </text>
          <text x="0" y="110" class="value">
            Total de Tasks: 130
          </text>
          <text x="0" y="130" class="value">
            Total de Sprints: 13
          </text>
        </g>
      </svg>
    