
      <svg xmlns="http://www.w3.org/2000/svg" viewBox="0 0 1200 600">
        <defs>
          <style>
            text { font-family: Arial, sans-serif; }
            .title { font-size: 24px; font-weight: bold; }
            .label { font-size: 14px; }
            .value { font-size: 12px; fill: #666666; }
            .axis { font-size: 12px; }
            .legend { font-size: 14px; }
          </style>
        </defs>

        <!-- Fundo -->
        <rect width="1200" height="600" fill="white"/>

        <!-- Grid -->
        
            <line 
              x1="70" 
              y1="50" 
              x2="1050" 
              y2="50" 
              stroke="#e5e7eb" 
              stroke-dasharray="4"
            />
            <text 
              x="60" 
              y="50" 
              text-anchor="end" 
              class="axis" 
              dominant-baseline="middle"
            >13</text>
          
            <line 
              x1="70" 
              y1="95" 
              x2="1050" 
              y2="95" 
              stroke="#e5e7eb" 
              stroke-dasharray="4"
            />
            <text 
              x="60" 
              y="95" 
              text-anchor="end" 
              class="axis" 
              dominant-baseline="middle"
            >12</text>
          
            <line 
              x1="70" 
              y1="140" 
              x2="1050" 
              y2="140" 
              stroke="#e5e7eb" 
              stroke-dasharray="4"
            />
            <text 
              x="60" 
              y="140" 
              text-anchor="end" 
              class="axis" 
              dominant-baseline="middle"
            >10</text>
          
            <line 
              x1="70" 
              y1="185" 
              x2="1050" 
              y2="185" 
              stroke="#e5e7eb" 
              stroke-dasharray="4"
            />
            <text 
              x="60" 
              y="185" 
              text-anchor="end" 
              class="axis" 
              dominant-baseline="middle"
            >9</text>
          
            <line 
              x1="70" 
              y1="230" 
              x2="1050" 
              y2="230" 
              stroke="#e5e7eb" 
              stroke-dasharray="4"
            />
            <text 
              x="60" 
              y="230" 
              text-anchor="end" 
              class="axis" 
              dominant-baseline="middle"
            >8</text>
          
            <line 
              x1="70" 
              y1="275" 
              x2="1050" 
              y2="275" 
              stroke="#e5e7eb" 
              stroke-dasharray="4"
            />
            <text 
              x="60" 
              y="275" 
              text-anchor="end" 
              class="axis" 
              dominant-baseline="middle"
            >7</text>
          
            <line 
              x1="70" 
              y1="320" 
              x2="1050" 
              y2="320" 
              stroke="#e5e7eb" 
              stroke-dasharray="4"
            />
            <text 
              x="60" 
              y="320" 
              text-anchor="end" 
              class="axis" 
              dominant-baseline="middle"
            >5</text>
          
            <line 
              x1="70" 
              y1="365" 
              x2="1050" 
              y2="365" 
              stroke="#e5e7eb" 
              stroke-dasharray="4"
            />
            <text 
              x="60" 
              y="365" 
              text-anchor="end" 
              class="axis" 
              dominant-baseline="middle"
            >4</text>
          
            <line 
              x1="70" 
              y1="410" 
              x2="1050" 
              y2="410" 
              stroke="#e5e7eb" 
              stroke-dasharray="4"
            />
            <text 
              x="60" 
              y="410" 
              text-anchor="end" 
              class="axis" 
              dominant-baseline="middle"
            >3</text>
          
            <line 
              x1="70" 
              y1="455" 
              x2="1050" 
              y2="455" 
              stroke="#e5e7eb" 
              stroke-dasharray="4"
            />
            <text 
              x="60" 
              y="455" 
              text-anchor="end" 
              class="axis" 
              dominant-baseline="middle"
            >1</text>
          
            <line 
              x1="70" 
              y1="500" 
              x2="1050" 
              y2="500" 
              stroke="#e5e7eb" 
              stroke-dasharray="4"
            />
            <text 
              x="60" 
              y="500" 
              text-anchor="end" 
              class="axis" 
              dominant-baseline="middle"
            >0</text>
          

        <!-- Áreas -->
        <path 
          d="M70,292.3076923076923 L159.0909090909091,292.3076923076923 L248.1818181818182,292.3076923076923 L337.27272727272725,292.3076923076923 L426.3636363636364,292.3076923076923 L515.4545454545455,292.3076923076923 L604.5454545454545,292.3076923076923 L693.6363636363636,292.3076923076923 L782.7272727272727,292.3076923076923 L871.8181818181819,292.3076923076923 L960.909090909091,292.3076923076923 L1050,292.3076923076923 L1050,500 L960.909090909091,500 L871.8181818181819,500 L782.7272727272727,500 L693.6363636363636,500 L604.5454545454545,500 L515.4545454545455,500 L426.3636363636364,500 L337.27272727272725,500 L248.1818181818182,500 L159.0909090909091,500 L70,500 Z" 
          fill="#ef4444" 
          opacity="0.8"
        />
        <path 
          d="M70,292.3076923076923 L159.0909090909091,292.3076923076923 L248.1818181818182,292.3076923076923 L337.27272727272725,292.3076923076923 L426.3636363636364,292.3076923076923 L515.4545454545455,292.3076923076923 L604.5454545454545,292.3076923076923 L693.6363636363636,292.3076923076923 L782.7272727272727,292.3076923076923 L871.8181818181819,292.3076923076923 L960.909090909091,292.3076923076923 L1050,292.3076923076923 L1050,500 L960.909090909091,500 L871.8181818181819,500 L782.7272727272727,500 L693.6363636363636,500 L604.5454545454545,500 L515.4545454545455,500 L426.3636363636364,500 L337.27272727272725,500 L248.1818181818182,500 L159.0909090909091,500 L70,500 Z" 
          fill="#f59e0b" 
          opacity="0.8"
        />
        <path 
          d="M70,292.3076923076923 L159.0909090909091,292.3076923076923 L248.1818181818182,292.3076923076923 L337.27272727272725,292.3076923076923 L426.3636363636364,292.3076923076923 L515.4545454545455,292.3076923076923 L604.5454545454545,292.3076923076923 L693.6363636363636,292.3076923076923 L782.7272727272727,292.3076923076923 L871.8181818181819,292.3076923076923 L960.909090909091,292.3076923076923 L1050,292.3076923076923 L1050,500 L960.909090909091,500 L871.8181818181819,500 L782.7272727272727,500 L693.6363636363636,500 L604.5454545454545,500 L515.4545454545455,500 L426.3636363636364,500 L337.27272727272725,500 L248.1818181818182,500 L159.0909090909091,500 L70,500 Z" 
          fill="#22c55e" 
          opacity="0.8"
        />

        <!-- Eixos -->
        <line 
          x1="70" 
          y1="50" 
          x2="70" 
          y2="500" 
          stroke="black" 
          stroke-width="2"
        />
        <line 
          x1="70" 
          y1="500" 
          x2="1050" 
          y2="500" 
          stroke="black" 
          stroke-width="2"
        />

        <!-- Labels dos dias -->
        
            <text 
              transform="rotate(-45 70 520)"
              x="70"
              y="520"
              text-anchor="end"
              class="axis"
            >seg. 01/04</text>
          
            <text 
              transform="rotate(-45 159.0909090909091 520)"
              x="159.0909090909091"
              y="520"
              text-anchor="end"
              class="axis"
            >ter. 02/04</text>
          
            <text 
              transform="rotate(-45 248.1818181818182 520)"
              x="248.1818181818182"
              y="520"
              text-anchor="end"
              class="axis"
            >qua. 03/04</text>
          
            <text 
              transform="rotate(-45 337.27272727272725 520)"
              x="337.27272727272725"
              y="520"
              text-anchor="end"
              class="axis"
            >qui. 04/04</text>
          
            <text 
              transform="rotate(-45 426.3636363636364 520)"
              x="426.3636363636364"
              y="520"
              text-anchor="end"
              class="axis"
            >sex. 05/04</text>
          
            <text 
              transform="rotate(-45 515.4545454545455 520)"
              x="515.4545454545455"
              y="520"
              text-anchor="end"
              class="axis"
            >sáb. 06/04</text>
          
            <text 
              transform="rotate(-45 604.5454545454545 520)"
              x="604.5454545454545"
              y="520"
              text-anchor="end"
              class="axis"
            >dom. 07/04</text>
          
            <text 
              transform="rotate(-45 693.6363636363636 520)"
              x="693.6363636363636"
              y="520"
              text-anchor="end"
              class="axis"
            >seg. 08/04</text>
          
            <text 
              transform="rotate(-45 782.7272727272727 520)"
              x="782.7272727272727"
              y="520"
              text-anchor="end"
              class="axis"
            >ter. 09/04</text>
          
            <text 
              transform="rotate(-45 871.8181818181819 520)"
              x="871.8181818181819"
              y="520"
              text-anchor="end"
              class="axis"
            >qua. 10/04</text>
          
            <text 
              transform="rotate(-45 960.909090909091 520)"
              x="960.909090909091"
              y="520"
              text-anchor="end"
              class="axis"
            >qui. 11/04</text>
          
            <text 
              transform="rotate(-45 1050 520)"
              x="1050"
              y="520"
              text-anchor="end"
              class="axis"
            >sex. 12/04</text>
          

        <!-- Label Eixo Y -->
        <text 
          transform="rotate(-90 30 300)" 
          x="30" 
          y="300" 
          text-anchor="middle" 
          class="label"
        >Número de Tarefas</text>

        <!-- Label Eixo X -->
        <text 
          x="600" 
          y="580" 
          text-anchor="middle" 
          class="label"
        >Dias da Sprint</text>

        <!-- Título -->
        <text 
          x="600" 
          y="30" 
          text-anchor="middle" 
          class="title"
        >Refatoração 3 - Cumulative Flow Diagram</text>

        <!-- Legenda -->
        <g transform="translate(1070, 50)">
          <rect width="15" height="15" fill="#ef4444" rx="2"/>
          <text x="25" y="12" class="legend">A Fazer</text>
          
          <rect y="25" width="15" height="15" fill="#f59e0b" rx="2"/>
          <text x="25" y="37" class="legend">Em Progresso</text>
          
          <rect y="50" width="15" height="15" fill="#22c55e" rx="2"/>
          <text x="25" y="62" class="legend">Concluído</text>
          
          <text x="0" y="90" class="value">
            Período: 01/04/2024 - 
            12/04/2024
          </text>
          <text x="0" y="110" class="value">
            Total de Issues: 13
          </text>
        </g>
      </svg>
    